<?xml version="1.0" encoding="utf-8"?>
<!-- Generator: Adobe Illustrator 18.0.0, SVG Export Plug-In . SVG Version: 6.00 Build 0)  -->
<!DOCTYPE svg PUBLIC "-//W3C//DTD SVG 1.1//EN" "http://www.w3.org/Graphics/SVG/1.1/DTD/svg11.dtd">
<svg version="1.1" id="Layer_1" xmlns="http://www.w3.org/2000/svg" xmlns:xlink="http://www.w3.org/1999/xlink" x="0px" y="0px"
	 viewBox="0 0 1975.9 400" enable-background="new 0 0 1975.9 400" xml:space="preserve">
<g>
	<g>
		<path fill="#091E3F" d="M1085.3,285.6h-45.8l-57.9-80c-2.2,0.1-4.2,0.2-6,0.2s-3.3,0-4.6,0c-1.1,0-2.3,0-3.6,0
			c-1.3,0-2.6-0.1-3.9-0.2v49.8c0,10.7,1.2,17.4,3.5,20c3.2,3.7,8,5.5,14.5,5.5h6.6v4.7h-73.3v-4.7h6.4c7.2,0,12.4-2.3,15.6-7
			c1.7-2.6,2.6-8.8,2.6-18.5V144.7c0-10.7-1.2-17.4-3.5-20c-3.2-3.8-8-5.6-14.7-5.6h-6.4v-4.6h62.3c9.3,0,17.1,0.3,23.6,0.8
			c6.5,0.6,12.1,1.6,16.8,3c4.7,1.4,8.8,3.3,12.2,5.7c3.4,2.4,6.6,5.4,9.7,9.1c6,7.2,9,15.7,9,25.3c0,10.6-3.4,19.7-10.3,27.5
			c-6.9,7.7-17.5,13.2-31.8,16.3l35.3,49.2c4.1,5.8,7.8,10.5,11.1,14.1c3.3,3.6,6.6,6.5,9.8,8.5c3.2,2.1,6.6,3.6,10.2,4.6
			c3.6,1,7.8,1.7,12.6,2.2V285.6z M963.6,197.6h7c8.3,0,15.6-1,21.8-2.9c6.2-1.9,11.3-4.6,15.4-7.9c4.1-3.4,7.2-7.3,9.2-11.9
			c2-4.6,3.1-9.5,3.1-14.8c0-5.3-0.9-10.2-2.7-14.6c-1.8-4.4-4.3-8.2-7.5-11.4c-3.2-3.2-7-5.7-11.5-7.5c-4.5-1.8-9.5-2.7-15-2.7
			c-5.1,0-11.7,0.8-19.8,2.4V197.6z"/>
		<path fill="#091E3F" d="M1177.5,110.5c12.3,0,23.5,2.5,33.7,7.5c10.1,5,18.8,11.6,26,19.8c7.2,8.2,12.7,17.7,16.7,28.3
			c4,10.6,6,21.6,6,32.9c0,12.8-2.2,24.8-6.6,35.8c-4.4,11-10.5,20.6-18.1,28.7c-7.6,8.1-16.6,14.5-26.8,19.1
			c-10.2,4.6-21.1,6.9-32.7,6.9c-11.7,0-22.6-2.2-32.7-6.6c-10.1-4.4-18.9-10.6-26.4-18.6c-7.5-8-13.4-17.5-17.7-28.5
			c-4.3-11-6.5-23.2-6.5-36.4c0-12.3,2.1-23.9,6.4-34.7c4.3-10.8,10.2-20.3,17.9-28.2c7.6-8,16.7-14.3,27.1-18.9
			C1154,112.8,1165.3,110.5,1177.5,110.5z M1175.2,119.6c-8.6,0-16.3,1.9-23.1,5.6c-6.7,3.7-12.4,9-17,15.9
			c-4.6,6.9-8.1,15.2-10.5,25c-2.4,9.8-3.6,20.7-3.6,32.8c0,12.1,1.2,23.2,3.5,33.1c2.3,10,5.8,18.6,10.4,25.8
			c4.6,7.2,10.3,12.8,17,16.8c6.8,4,14.6,6,23.4,6c7.9,0,15.3-1.5,22-4.6c6.7-3.1,12.6-7.8,17.6-14.1c5-6.4,8.9-14.5,11.7-24.3
			c2.8-9.8,4.2-21.5,4.2-35.2c0-13.1-1.2-24.8-3.5-35c-2.3-10.2-5.9-18.9-10.5-26c-4.7-7.1-10.5-12.5-17.4-16.2
			C1192.4,121.5,1184.4,119.6,1175.2,119.6z"/>
		<path fill="#091E3F" d="M1418.4,114.4l-112.5,160.7h70.2c5.4,0,10.1-0.5,14.1-1.5c4-1,7.6-2.8,10.8-5.5c3.2-2.6,5.9-6.3,8.3-10.9
			c2.4-4.6,4.7-10.6,6.9-17.8l4.1,0.8l-7.9,45.3h-139.4v-4.7l109.8-156.2H1328c-6.9,0-12.4,0.5-16.5,1.5c-4.1,1-7.3,2.8-9.7,5.3
			c-2.4,2.5-4.2,5.9-5.4,10.1c-1.2,4.2-2.3,9.4-3.4,15.6h-4.7l3.5-42.7H1418.4z"/>
		<path fill="#091E3F" d="M1586.5,110.5l4.3,54h-4.3c-5.3-16-12.7-27.5-22.1-34.6c-9.5-7.1-21-10.6-34.5-10.6c-10,0-18.9,2-26.9,5.9
			c-7.9,3.9-14.7,9.4-20.2,16.3c-5.5,7-9.7,15.2-12.6,24.7c-2.9,9.5-4.4,19.8-4.4,30.9c0,12.4,1.8,23.8,5.3,34
			c3.5,10.3,8.2,19.1,14.2,26.4c6,7.3,12.9,13,20.9,17.1c8,4.1,16.5,6.1,25.4,6.1c12.4,0,24.2-3.2,35.3-9.5v-49.5
			c0-4.4-0.2-7.9-0.5-10.5c-0.3-2.6-0.8-4.8-1.4-6.4c-0.7-1.6-1.5-2.8-2.5-3.7c-1-0.8-2.2-1.6-3.5-2.3c-2.8-1.4-7.7-2.1-14.5-2.1
			v-4.7h66.3v4.7h-3.2c-2.8,0-5.3,0.3-7.3,1c-2,0.7-3.7,1.9-5,3.7c-1.3,1.8-2.2,4.4-2.8,7.6c-0.6,3.3-0.9,7.5-0.9,12.7v52.4
			c-4.9,2.6-9.7,4.9-14.4,6.9c-4.7,1.9-9.4,3.5-14.3,4.7c-4.8,1.2-9.8,2.1-15,2.8c-5.1,0.6-10.6,0.9-16.4,0.9
			c-33,0-58.1-10.6-75.4-31.9c-12.8-15.7-19.2-34-19.2-55c0-8.2,1.1-16.3,3.4-24.3c2.3-7.9,5.5-15.5,9.5-22.6
			c4.1-7.1,8.9-13.6,14.6-19.5c5.6-5.9,11.8-10.8,18.5-14.8c12.5-7.3,27.3-11,44.4-11c3.4,0,6.4,0.1,9,0.3c2.6,0.2,5.3,0.6,8.1,1.1
			c2.7,0.6,5.8,1.4,9.2,2.4c3.4,1.1,7.5,2.5,12.4,4.3c2.3,0.9,4.3,1.6,5.9,2c1.6,0.4,2.8,0.6,3.6,0.6c1.6,0,3-0.7,4.1-2.2
			c1.1-1.5,1.8-4.3,2.1-8.6H1586.5z"/>
		<path fill="#091E3F" d="M1732.7,228.3h-66.3l-11.6,27c-2.8,6.4-4.3,11.3-4.3,14.8c0,2.7,1.2,5.1,3.7,7c2.4,2,7.8,3.3,16,3.7v4.7
			h-53.9v-4.7c7.2-1.2,11.9-2.8,13.9-4.9c4.3-4.1,9.1-12.3,14.3-24.6l60.1-140.9h4.4l59.5,142.4c4.8,11.2,9.2,18.6,13.1,22.3
			c3.8,3.3,9.2,5.1,16.3,5.6v4.7h-67.5v-4.7c3.4-0.1,6.2-0.5,8.4-1.1c2.2-0.6,4-1.4,5.3-2.3c1.3-0.9,2.3-2,2.8-3.1
			c0.6-1.2,0.8-2.5,0.8-3.9c0-3.8-1.7-9.6-5-17.6L1732.7,228.3z M1729.2,218.9l-29-69.2l-29.9,69.2H1729.2z"/>
		<path fill="#091E3F" d="M1975.9,285.6h-45.8l-57.9-80c-2.2,0.1-4.2,0.2-6,0.2c-1.7,0-3.3,0-4.6,0c-1.1,0-2.3,0-3.6,0
			c-1.3,0-2.6-0.1-3.9-0.2v49.8c0,10.7,1.2,17.4,3.5,20c3.2,3.7,8,5.5,14.5,5.5h6.6v4.7h-73.3v-4.7h6.4c7.2,0,12.4-2.3,15.6-7
			c1.7-2.6,2.6-8.8,2.6-18.5V144.7c0-10.7-1.2-17.4-3.5-20c-3.2-3.8-8-5.6-14.7-5.6h-6.4v-4.6h62.3c9.3,0,17.1,0.3,23.6,0.8
			c6.5,0.6,12.1,1.6,16.8,3c4.7,1.4,8.8,3.3,12.2,5.7c3.4,2.4,6.6,5.4,9.7,9.1c6,7.2,9,15.7,9,25.3c0,10.6-3.4,19.7-10.3,27.5
			c-6.9,7.7-17.5,13.2-31.8,16.3l35.3,49.2c4.1,5.8,7.8,10.5,11.1,14.1c3.3,3.6,6.6,6.5,9.8,8.5c3.2,2.1,6.6,3.6,10.2,4.6
			c3.6,1,7.8,1.7,12.6,2.2V285.6z M1854.2,197.6h7c8.3,0,15.6-1,21.8-2.9c6.2-1.9,11.3-4.6,15.4-7.9c4.1-3.4,7.2-7.3,9.2-11.9
			c2-4.6,3.1-9.5,3.1-14.8c0-5.3-0.9-10.2-2.7-14.6c-1.8-4.4-4.3-8.2-7.5-11.4c-3.2-3.2-7-5.7-11.5-7.5c-4.5-1.8-9.5-2.7-15-2.7
			c-5.1,0-11.7,0.8-19.8,2.4V197.6z"/>
	</g>
	<g>
		<g>
			<g>
				<polygon fill="#091E3F" points="0,201 221.9,264.7 238.1,261.9 238.1,237.1 281.9,231.7 281.9,208.6 0,127.7 				"/>
				<polygon fill="#091E3F" points="823.7,201 601.8,264.7 585.6,261.9 585.6,237.1 541.8,231.7 541.8,208.6 823.7,127.7 				"/>
			</g>
		</g>
		<g>
			<polygon fill="#4F9AC4" points="267.8,41.3 319.7,56.2 123.9,112.5 72,97.6 			"/>
			<polygon fill="#4F9AC4" points="411.8,0 607.7,56.2 555.8,71.1 411.8,29.8 339.8,50.5 287.9,35.6 			"/>
			<polygon fill="#4F9AC4" points="411.8,41.3 463.7,56.2 247.8,118.2 267.8,124 339.8,103.3 463.7,138.9 267.8,195.1 0,118.2 
				51.9,103.3 267.8,165.3 359.9,138.9 339.8,133.1 267.8,153.8 144,118.2 			"/>
			<path fill="#4F9AC4" d="M359.9,97.6l123.9,35.6l72-20.7l20.1,5.8l-215.9,62l51.9,14.9l267.8-76.9L483.8,62L359.9,97.6z
				 M503.9,97.6l-20.1,5.8l-20.1-5.8l20.1-5.8L503.9,97.6z"/>
			<polygon fill="#4F9AC4" points="627.8,62 823.6,118.2 627.8,174.5 575.9,159.6 719.9,118.2 575.9,76.9 			"/>
			<polygon fill="#4F9AC4" points="483.8,186 535.7,200.9 411.8,236.5 287.9,200.9 339.8,186 411.8,206.7 			"/>
			<polygon fill="#F92438" points="555.8,165.3 607.7,180.2 555.8,195.1 503.9,180.2 			"/>
		</g>
		<g>
			<path fill="#091E3F" d="M411.8,374.5l-258.2-74.1v25.5L411.8,400L670,325.9v-25.5L411.8,374.5z"/>
			<path fill="#091E3F" d="M411.8,331.8l-213.2-61.2v24.6l213.2,61.2L625,295.2v-24.6L411.8,331.8z"/>
			<path fill="#091E3F" d="M411.8,246.6l-123.1-35.4v24.3l123.1,35.4L535,235.5v-24.3L411.8,246.6z"/>
			<path fill="#091E3F" d="M411.8,289l-168.2-48.3v24.7l168.2,48.3l168.2-48.3v-24.7L411.8,289z"/>
		</g>
		<g>
			<path fill="#091E3F" d="M288.5,238.2l122.6,35.2l0.7,0.2l0.7-0.2l122.6-35.2l31.3,3.6l-154.7,44.4l-154.6-44.4L288.5,238.2
				 M535,235.5l-123.1,35.4l-123.1-35.4l-45.1,5.2L411.8,289l168.2-48.3L535,235.5L535,235.5z"/>
			<path fill="#091E3F" d="M580.3,268.1l31.2,3.6l-199.7,57.3l-199.6-57.3l31.2-3.6l167.7,48.1l0.7,0.2l0.7-0.2L580.3,268.1
				 M580.1,265.4l-168.2,48.3l-168.2-48.3l-45,5.2l213.2,61.2L625,270.6L580.1,265.4L580.1,265.4z"/>
			<path fill="#091E3F" d="M198.5,297.9L411.1,359l0.7,0.2l0.7-0.2l212.7-61.1l31.2,3.6l-244.6,70.2l-244.7-70.2L198.5,297.9
				 M625,295.2l-213.2,61.2l-213.2-61.2l-45,5.2l258.2,74.1L670,300.4L625,295.2L625,295.2z"/>
		</g>
	</g>
</g>
</svg>
